{
  "accessors": [
    {
      "bufferView": 1,
      "componentType": 5126,
      "count": 58628,
      "max": [
        4.050660610198975,
        2.786355495452881,
        3.229043483734131
      ],
      "min": [
        -2.235299825668335,
        -1.777367353439331,
        -2.8216214179992676
      ],
      "type": "VEC3"
    },
    {
      "bufferView": 1,
      "byteOffset": 703536,
      "componentType": 5126,
      "count": 58628,
      "max": [
        0.9999935626983643,
        0.999932050704956,
        0.9999268054962158
      ],
      "min": [
        -0.9999310970306396,
        -0.9999644756317139,
        -0.9999631643295288
      ],
      "type": "VEC3"
    },
    {
      "bufferView": 0,
      "componentType": 5125,
      "count": 351756,
      "type": "SCALAR"
    }
  ],
  "asset": {
    "extras": {
      "author": "wifqo.akroma (https://sketchfab.com/wifqo.akroma)",
      "license": "CC-BY-4.0 (http://creativecommons.org/licenses/by/4.0/)",
      "source": "https://sketchfab.com/3d-models/cartoonish-bush-5141e5504e2b4b119483ef63e3b33bd1",
      "title": "Cartoonish Bush"
    },
    "generator": "Sketchfab-12.67.0",
    "version": "2.0"
  },
  "bufferViews": [
    {
      "buffer": 0,
      "byteLength": 1407024,
      "name": "floatBufferViews",
      "target": 34963
    },
    {
      "buffer": 0,
      "byteLength": 1407072,
      "byteOffset": 1407024,
      "byteStride": 12,
      "name": "floatBufferViews",
      "target": 34962
    }
  ],
  "buffers": [
    {
      "byteLength": 2814096,
      "uri": "scene.bin"
    }
  ],
  "materials": [
    {
      "doubleSided": true,
      "name": "Base",
      "pbrMetallicRoughness": {
        "baseColorFactor": [
          0.0,
          0.350555,
          0.0596553,
          1.0
        ],
        "metallicFactor": 0.0,
        "roughnessFactor": 0.844444
      }
    }
  ],
  "meshes": [
    {
      "name": "Object_0",
      "primitives": [
        {
          "attributes": {
            "NORMAL": 1,
            "POSITION": 0
          },
          "indices": 2,
          "material": 0,
          "mode": 4
        }
      ]
    }
  ],
  "nodes": [
    {
      "children": [
        1
      ],
      "matrix": [
        1.0,
        0.0,
        0.0,
        0.0,
        0.0,
        2.220446049250313e-16,
        -1.0,
        0.0,
        0.0,
        1.0,
        2.220446049250313e-16,
        0.0,
        0.0,
        0.0,
        0.0,
        1.0
      ],
      "name": "Sketchfab_model"
    },
    {
      "children": [
        2
      ],
      "name": "root"
    },
    {
      "children": [
        3
      ],
      "matrix": [
        1.0,
        0.0,
        0.0,
        0.0,
        0.0,
        2.220446049250313e-16,
        1.0,
        0.0,
        0.0,
        -1.0,
        2.220446049250313e-16,
        0.0,
        0.0,
        0.0,
        0.0,
        1.0
      ],
      "name": "GLTF_SceneRootNode"
    },
    {
      "children": [
        4
      ],
      "name": "Mball.001_0"
    },
    {
      "mesh": 0,
      "name": "Object_4"
    }
  ],
  "scene": 0,
  "scenes": [
    {
      "name": "Sketchfab_Scene",
      "nodes": [
        0
      ]
    }
  ]
}
